<?xml version="1.0" encoding="UTF-8"?>
<svg version="1.1" xmlns="http://www.w3.org/2000/svg" width="512" height="512">
<path d="M0 0 C1.15075516 -0.0071553 2.30151031 -0.01431061 3.48713684 -0.02168274 C4.74587616 -0.02437164 6.00461548 -0.02706055 7.30149841 -0.02983093 C8.64383112 -0.03609931 9.9861621 -0.04274644 11.32849121 -0.04974365 C15.73411357 -0.07074935 20.13973612 -0.08114565 24.5453949 -0.09111023 C26.06569372 -0.09515968 27.58599236 -0.09927665 29.10629082 -0.10346031 C36.25302946 -0.12250763 43.39975782 -0.13673726 50.54651695 -0.14507228 C58.77649225 -0.15483067 67.00619759 -0.1811153 75.23607785 -0.22157317 C81.60910369 -0.25181932 87.98205255 -0.26654934 94.35514873 -0.26985329 C98.15561506 -0.27219492 101.95579286 -0.28103805 105.75618172 -0.30631447 C109.33745339 -0.32974847 112.91824974 -0.33376777 116.49957848 -0.32355309 C118.42380752 -0.32282864 120.34801325 -0.34181346 122.2721405 -0.36161804 C134.88852299 -0.28677284 144.05021814 3.34658303 153.2250824 11.88935852 C161.6070029 20.57771483 164.47519262 31.50027786 164.5922699 43.27217102 C164.60034164 44.05551819 164.60841339 44.83886536 164.61672974 45.64595032 C164.63052603 47.30339884 164.641268 48.96087525 164.64915466 50.61836243 C164.66061307 52.28999843 164.68096631 53.96159965 164.7106781 55.63301086 C164.98500223 71.0963094 163.40707569 84.58164508 152.28367615 96.33467102 C144.44129735 103.7671694 136.38051134 107.31743625 125.60398865 107.20967102 C124.4335199 107.20064758 123.26305115 107.19162415 122.05711365 107.18232727 C120.71906677 107.16492493 120.71906677 107.16492493 119.35398865 107.14717102 C119.35675403 108.75896964 119.35675403 108.75896964 119.35957527 110.40332985 C119.40403658 136.58712892 119.43686968 162.77092308 119.45761299 188.95475197 C119.46791173 201.61721262 119.48194522 214.27964828 119.50486755 226.9420929 C119.52484439 237.98272162 119.53771527 249.02333225 119.54216564 260.06397855 C119.54476575 265.90621201 119.55084784 271.74839369 119.56544876 277.5906105 C119.57910057 283.09807911 119.58319601 288.60547499 119.58020401 294.11295891 C119.58075079 296.12600412 119.58468268 298.13905195 119.5923996 300.15208244 C119.6703764 321.55675712 118.19415141 341.02572088 102.54930115 357.27998352 C101.20027954 358.61856782 99.8434324 359.94931031 98.47898865 361.27217102 C97.80996521 361.93603821 97.14094177 362.5999054 96.4516449 363.28388977 C92.4687079 367.20543275 88.36429981 370.94732389 84.13572693 374.60176086 C81.95894912 376.48981287 79.84563713 378.44215751 77.72898865 380.39717102 C71.52410213 385.98062732 64.98832008 391.09159327 58.35398865 396.14717102 C57.67255798 396.6690802 56.99112732 397.19098938 56.28904724 397.72871399 C30.8537028 417.12265681 3.49113864 433.97747763 -24.64601135 449.14717102 C-25.48374084 449.60027649 -26.32147034 450.05338196 -27.18458557 450.5202179 C-75.85276977 476.7185611 -127.32420706 496.755819 -180.64601135 511.14717102 C-181.35539856 511.34641174 -182.06478577 511.54565247 -182.79566956 511.75093079 C-196.72837524 514.73454094 -211.17388824 512.12923085 -223.27101135 505.02217102 C-236.16701691 496.23281853 -243.91656656 485.33495526 -247.64601135 470.14717102 C-249.85456978 455.38470154 -247.72069444 441.83093247 -239.64601135 429.14717102 C-227.46284821 413.1553354 -212.79318029 408.13360847 -193.95851135 402.89717102 C-132.22064522 385.36624082 -66.48686229 356.67308378 -17.64601135 314.14717102 C-16.76558167 313.39951477 -15.88515198 312.65185852 -14.9780426 311.88154602 C-3.03311971 301.50693057 5.39857576 288.58997161 6.63765526 272.45284462 C6.79790769 268.09743359 6.79116728 263.7424782 6.78636169 259.38471985 C6.79539407 257.71808655 6.80572487 256.05145987 6.81724548 254.38484192 C6.84466846 249.89181706 6.85407988 245.39891874 6.86009955 240.90582108 C6.86952174 236.19859761 6.89572808 231.49146726 6.92010498 226.78430176 C6.96366832 217.8846541 6.9922776 208.98502462 7.01542836 200.08530301 C7.0425347 189.94733925 7.08644275 179.80946964 7.13171709 169.67157328 C7.22441767 148.8301566 7.29616501 127.98871174 7.35398865 107.14717102 C6.48298523 107.16602356 5.61198181 107.1848761 4.71458435 107.20429993 C3.56047058 107.21896301 2.40635681 107.2336261 1.2172699 107.24873352 C0.07814148 107.26758606 -1.06098694 107.2864386 -2.2346344 107.30586243 C-13.00046997 106.80505422 -21.29967841 100.93981891 -28.39601135 93.27217102 C-35.73799948 84.4584404 -37.97388342 74.78644035 -37.91163635 63.49092102 C-37.9135498 62.70374695 -37.91546326 61.91657288 -37.91743469 61.10554504 C-37.91878469 59.45519182 -37.91517195 57.80482754 -37.90675354 56.15449524 C-37.89603679 53.65310929 -37.90668929 51.15244134 -37.91944885 48.65107727 C-37.91812705 47.0351903 -37.91556422 45.41930376 -37.91163635 43.80342102 C-37.91568481 43.06877625 -37.91973328 42.33413147 -37.92390442 41.57722473 C-37.81951153 29.80317435 -34.04515835 19.59436483 -26.02101135 10.83467102 C-18.85839619 4.11453401 -9.78697275 0.04183761 0 0 Z " fill="#E20512" transform="translate(303.64601135253906,-0.1471710205078125)"/>
<path d="M0 0 C1.15075516 -0.0071553 2.30151031 -0.01431061 3.48713684 -0.02168274 C4.74587616 -0.02437164 6.00461548 -0.02706055 7.30149841 -0.02983093 C8.64383112 -0.03609931 9.9861621 -0.04274644 11.32849121 -0.04974365 C15.73411357 -0.07074935 20.13973612 -0.08114565 24.5453949 -0.09111023 C26.06569372 -0.09515968 27.58599236 -0.09927665 29.10629082 -0.10346031 C36.25302946 -0.12250763 43.39975782 -0.13673726 50.54651695 -0.14507228 C58.77649225 -0.15483067 67.00619759 -0.1811153 75.23607785 -0.22157317 C81.60910369 -0.25181932 87.98205255 -0.26654934 94.35514873 -0.26985329 C98.15561506 -0.27219492 101.95579286 -0.28103805 105.75618172 -0.30631447 C109.33745339 -0.32974847 112.91824974 -0.33376777 116.49957848 -0.32355309 C118.42380752 -0.32282864 120.34801325 -0.34181346 122.2721405 -0.36161804 C134.88852299 -0.28677284 144.05021814 3.34658303 153.2250824 11.88935852 C161.6070029 20.57771483 164.47519262 31.50027786 164.5922699 43.27217102 C164.60034164 44.05551819 164.60841339 44.83886536 164.61672974 45.64595032 C164.63052603 47.30339884 164.641268 48.96087525 164.64915466 50.61836243 C164.66061307 52.28999843 164.68096631 53.96159965 164.7106781 55.63301086 C164.98500223 71.0963094 163.40707569 84.58164508 152.28367615 96.33467102 C144.44129735 103.7671694 136.38051134 107.31743625 125.60398865 107.20967102 C124.4335199 107.20064758 123.26305115 107.19162415 122.05711365 107.18232727 C120.71906677 107.16492493 120.71906677 107.16492493 119.35398865 107.14717102 C119.35675403 108.75896964 119.35675403 108.75896964 119.35957527 110.40332985 C119.40403658 136.58712892 119.43686968 162.77092308 119.45761299 188.95475197 C119.46791173 201.61721262 119.48194522 214.27964828 119.50486755 226.9420929 C119.52484439 237.98272162 119.53771527 249.02333225 119.54216564 260.06397855 C119.54476575 265.90621201 119.55084784 271.74839369 119.56544876 277.5906105 C119.57910057 283.09807911 119.58319601 288.60547499 119.58020401 294.11295891 C119.58075079 296.12600412 119.58468268 298.13905195 119.5923996 300.15208244 C119.6703764 321.55675712 118.19415141 341.02572088 102.54930115 357.27998352 C101.20027954 358.61856782 99.8434324 359.94931031 98.47898865 361.27217102 C97.80996521 361.93603821 97.14094177 362.5999054 96.4516449 363.28388977 C92.4687079 367.20543275 88.36429981 370.94732389 84.13572693 374.60176086 C81.95894912 376.48981287 79.84563713 378.44215751 77.72898865 380.39717102 C71.52410213 385.98062732 64.98832008 391.09159327 58.35398865 396.14717102 C57.67255798 396.6690802 56.99112732 397.19098938 56.28904724 397.72871399 C30.8537028 417.12265681 3.49113864 433.97747763 -24.64601135 449.14717102 C-25.48374084 449.60027649 -26.32147034 450.05338196 -27.18458557 450.5202179 C-75.85276977 476.7185611 -127.32420706 496.755819 -180.64601135 511.14717102 C-181.35539856 511.34641174 -182.06478577 511.54565247 -182.79566956 511.75093079 C-196.72837524 514.73454094 -211.17388824 512.12923085 -223.27101135 505.02217102 C-236.16701691 496.23281853 -243.91656656 485.33495526 -247.64601135 470.14717102 C-249.85456978 455.38470154 -247.72069444 441.83093247 -239.64601135 429.14717102 C-227.46284821 413.1553354 -212.79318029 408.13360847 -193.95851135 402.89717102 C-132.22064522 385.36624082 -66.48686229 356.67308378 -17.64601135 314.14717102 C-16.76558167 313.39951477 -15.88515198 312.65185852 -14.9780426 311.88154602 C-3.03311971 301.50693057 5.39857576 288.58997161 6.63765526 272.45284462 C6.79790769 268.09743359 6.79116728 263.7424782 6.78636169 259.38471985 C6.79539407 257.71808655 6.80572487 256.05145987 6.81724548 254.38484192 C6.84466846 249.89181706 6.85407988 245.39891874 6.86009955 240.90582108 C6.86952174 236.19859761 6.89572808 231.49146726 6.92010498 226.78430176 C6.96366832 217.8846541 6.9922776 208.98502462 7.01542836 200.08530301 C7.0425347 189.94733925 7.08644275 179.80946964 7.13171709 169.67157328 C7.22441767 148.8301566 7.29616501 127.98871174 7.35398865 107.14717102 C6.48298523 107.16602356 5.61198181 107.1848761 4.71458435 107.20429993 C3.56047058 107.21896301 2.40635681 107.2336261 1.2172699 107.24873352 C0.07814148 107.26758606 -1.06098694 107.2864386 -2.2346344 107.30586243 C-13.00046997 106.80505422 -21.29967841 100.93981891 -28.39601135 93.27217102 C-35.73799948 84.4584404 -37.97388342 74.78644035 -37.91163635 63.49092102 C-37.9135498 62.70374695 -37.91546326 61.91657288 -37.91743469 61.10554504 C-37.91878469 59.45519182 -37.91517195 57.80482754 -37.90675354 56.15449524 C-37.89603679 53.65310929 -37.90668929 51.15244134 -37.91944885 48.65107727 C-37.91812705 47.0351903 -37.91556422 45.41930376 -37.91163635 43.80342102 C-37.91568481 43.06877625 -37.91973328 42.33413147 -37.92390442 41.57722473 C-37.81951153 29.80317435 -34.04515835 19.59436483 -26.02101135 10.83467102 C-18.85839619 4.11453401 -9.78697275 0.04183761 0 0 Z M-16.64601135 24.14717102 C-17.45038635 25.10623352 -17.45038635 25.10623352 -18.27101135 26.08467102 C-21.79168168 31.36567651 -21.9778931 36.12536266 -22.0171051 42.28779602 C-22.02613358 43.16941406 -22.03516205 44.0510321 -22.04446411 44.95936584 C-22.05894153 46.82190063 -22.0678471 48.68448599 -22.07154846 50.54707336 C-22.08341534 53.37429708 -22.13259883 56.19931557 -22.18312073 59.02607727 C-22.19258968 60.84247296 -22.19982246 62.65888195 -22.2046051 64.47529602 C-22.23390358 65.72732819 -22.23390358 65.72732819 -22.26379395 67.00465393 C-22.20980338 74.14715346 -19.81644865 79.78707017 -14.89038086 85.00782776 C-7.06422919 92.32640453 0.66015307 92.57959095 10.87937927 92.58662415 C11.78236755 92.60531555 12.68535583 92.62400696 13.6157074 92.64326477 C14.8371344 92.64604431 14.8371344 92.64604431 16.08323669 92.64888 C19.28980746 93.35252595 20.3404888 94.56674597 22.35398865 97.14717102 C22.8545599 100.41976261 22.8545599 100.41976261 22.85519409 104.38766479 C22.86349569 105.48370865 22.86349569 105.48370865 22.87196499 106.6018948 C22.88558358 109.05165853 22.87059612 111.50040549 22.85569763 113.95014954 C22.85948062 115.70627272 22.86498049 117.46239292 22.87207031 119.21850586 C22.8860521 123.99170907 22.87483286 128.76455286 22.8583591 133.53773618 C22.84451163 138.53742842 22.85096892 143.53709971 22.85449219 148.5368042 C22.8571963 156.94092088 22.84370742 165.34489493 22.82054138 173.74897766 C22.79399094 183.44758181 22.79216454 193.14594653 22.80392975 202.84457451 C22.8147379 212.18525205 22.80849275 221.52584348 22.79437447 230.86651421 C22.78863486 234.8347421 22.78868152 238.80290656 22.79343987 242.77113533 C22.79823829 247.45549318 22.78799006 252.13959163 22.76648521 256.82390022 C22.76095376 258.5366478 22.76041827 260.24942049 22.76543808 261.96216965 C22.78878661 271.07692376 22.46994714 279.45802481 19.35398865 288.14717102 C18.77197693 289.80426086 18.77197693 289.80426086 18.1782074 291.49482727 C-4.75735648 346.27220492 -84.25663673 378.43096961 -135.96144104 399.67744446 C-151.58788466 405.91062698 -167.53101819 411.32565408 -183.64601135 416.14717102 C-185.89607939 416.85528821 -188.14608148 417.56361496 -190.39601135 418.27217102 C-194.51775148 419.55607524 -198.61777817 420.59846897 -202.83351135 421.52217102 C-211.82676425 423.72895867 -220.0387617 428.67995562 -225.64601135 436.14717102 C-232.03653776 447.27998852 -234.94140615 457.66337049 -231.52101135 470.45967102 C-227.96685615 480.51332302 -221.06524434 488.39578948 -211.8921051 493.75654602 C-187.56785442 505.28708296 -154.19560202 487.28074803 -130.64601135 479.14717102 C-129.43219788 478.72951477 -128.2183844 478.31185852 -126.9677887 477.88154602 C-106.67632938 470.83080006 -87.14484369 462.11869578 -67.64601135 453.14717102 C-66.45105042 452.59738586 -65.25608948 452.04760071 -64.0249176 451.4811554 C-30.99860429 436.17390653 0.64434164 418.18940465 30.35398865 397.14717102 C31.61270645 396.26769662 32.87180535 395.38876733 34.1313324 394.51045227 C46.14870714 386.0835748 57.54387682 377.08181605 68.35398865 367.14717102 C69.64181046 366.01777173 70.93334286 364.89258602 72.22898865 363.77217102 C76.72943633 359.84683126 81.14664538 355.83214932 85.5219574 351.76826477 C87.1512468 350.26032934 88.79290307 348.76504774 90.4672699 347.30732727 C97.11821688 341.27575894 102.72051266 331.1569456 103.53774905 322.1137569 C103.61018344 319.68532458 103.61867219 317.26425573 103.60554504 314.83476257 C103.60851518 313.9054919 103.61148532 312.97622123 103.61454546 312.01879084 C103.62217497 308.90966578 103.61569578 305.8007302 103.60935974 302.69160461 C103.61211004 300.46078361 103.61579017 298.22996359 103.62033081 295.99914551 C103.62843946 291.19794262 103.63061215 286.3967863 103.62838364 281.59557724 C103.62555191 274.00764403 103.63989617 266.41980403 103.65736389 258.83189392 C103.68055058 248.19773148 103.69967391 237.56357697 103.71238708 226.92939758 C103.71319745 226.25497028 103.71400782 225.58054298 103.71484275 224.88567849 C103.72607296 215.30703858 103.73134767 205.72840449 103.73422988 196.14975889 C103.73443387 195.47472521 103.73463785 194.79969152 103.73484802 194.10420227 C103.73504796 193.42999223 103.73524789 192.75578219 103.73545389 192.06114154 C103.73918493 180.82404694 103.75848622 169.58703993 103.78994238 158.34998381 C103.81020324 150.80266358 103.81250407 143.25561486 103.80166221 135.70827842 C103.79906206 131.01977513 103.81302451 126.33143123 103.83174324 121.64296913 C103.83708231 119.46447263 103.83553938 117.28594708 103.82670784 115.10746193 C103.81564458 112.13979451 103.82895082 109.17321266 103.84846497 106.20561218 C103.83934031 105.338111 103.83021565 104.47060982 103.82081449 103.57682073 C103.89552771 97.76171306 103.89552771 97.76171306 106.24663734 94.61017799 C108.72490607 92.88966541 109.99385363 92.6726403 112.98680115 92.71357727 C113.87101746 92.70761536 114.75523376 92.70165344 115.66624451 92.69551086 C117.05855286 92.70252014 117.05855286 92.70252014 118.47898865 92.70967102 C127.54198095 92.50763716 134.1739604 91.735515 141.16648865 85.54170227 C147.11591541 79.29194387 148.82096483 72.00071899 148.7875824 63.62373352 C148.79282425 62.83751617 148.7980661 62.05129883 148.8034668 61.24125671 C148.80984781 59.58913851 148.80860125 57.93697464 148.80003357 56.28486633 C148.79153228 53.78500218 148.82032295 51.28743481 148.85203552 48.78779602 C148.89576868 39.1394919 148.6903596 30.6458682 142.4594574 22.74482727 C141.51006287 21.98492493 141.51006287 21.98492493 140.54148865 21.20967102 C139.91629333 20.68502258 139.29109802 20.16037415 138.6469574 19.61982727 C131.30060309 14.90164061 125.195438 14.7061439 116.60081482 14.72724915 C115.32838425 14.7187796 114.05595367 14.71031006 112.7449646 14.70158386 C109.26955296 14.67944831 105.79437899 14.67643323 102.31890655 14.67833138 C99.40915734 14.67845147 96.49945777 14.66987117 93.58972245 14.66155386 C86.71936247 14.64234754 79.84912397 14.63942544 72.97874451 14.64619446 C65.91163668 14.65282975 58.84505151 14.62998566 51.77804965 14.59288073 C45.69284648 14.56210023 39.6078107 14.5508328 33.52253133 14.55471754 C29.89592528 14.55677687 26.26972591 14.55143386 22.6431942 14.52682495 C18.59356438 14.50025084 14.54502502 14.51434884 10.49534607 14.53193665 C9.30799866 14.5186734 8.12065125 14.50541016 6.89732361 14.491745 C-2.2101933 14.58335807 -10.68063364 16.75010265 -16.64601135 24.14717102 Z " fill="#010000" transform="translate(303.64601135253906,-0.1471710205078125)"/>
<path d="M0 0 C11.15399781 9.20509336 18.54980312 21.72928483 21 36 C21.09818909 37.93461532 21.14795725 39.87202139 21.16113281 41.80908203 C21.17074036 42.95442413 21.1803479 44.09976624 21.19024658 45.27981567 C21.19449646 46.51005463 21.19874634 47.74029358 21.203125 49.0078125 C21.20882507 50.284216 21.21452515 51.56061951 21.22039795 52.8757019 C21.22983979 55.57732704 21.23674045 58.27884136 21.24023438 60.98046875 C21.24569495 64.4130485 21.26968129 67.84522676 21.29820633 71.27768135 C21.32151804 74.58354915 21.32329513 77.88936694 21.328125 81.1953125 C21.3404718 82.41340607 21.3528186 83.63149963 21.36553955 84.88650513 C21.32494984 100.63299768 16.34324037 114.29550169 5.34765625 125.75 C-6.65204836 137.25054884 -20.34318103 142.81574315 -37 143 C-53.36658907 142.02234977 -66.84833268 135.67134041 -78.25 123.875 C-91.82124385 107.62852123 -92.50402491 89.08819787 -92.39111328 68.92333984 C-92.37503333 65.50708076 -92.39102736 62.09200446 -92.41015625 58.67578125 C-92.43174545 38.05565247 -90.4765148 19.71814761 -75.37109375 4.1796875 C-54.22896961 -15.25574128 -23.23800578 -16.4588961 0 0 Z " fill="#E10512" transform="translate(136,246)"/>
<path d="M0 0 C11.15399781 9.20509336 18.54980312 21.72928483 21 36 C21.09818909 37.93461532 21.14795725 39.87202139 21.16113281 41.80908203 C21.17074036 42.95442413 21.1803479 44.09976624 21.19024658 45.27981567 C21.19449646 46.51005463 21.19874634 47.74029358 21.203125 49.0078125 C21.20882507 50.284216 21.21452515 51.56061951 21.22039795 52.8757019 C21.22983979 55.57732704 21.23674045 58.27884136 21.24023438 60.98046875 C21.24569495 64.4130485 21.26968129 67.84522676 21.29820633 71.27768135 C21.32151804 74.58354915 21.32329513 77.88936694 21.328125 81.1953125 C21.3404718 82.41340607 21.3528186 83.63149963 21.36553955 84.88650513 C21.32494984 100.63299768 16.34324037 114.29550169 5.34765625 125.75 C-6.65204836 137.25054884 -20.34318103 142.81574315 -37 143 C-53.36658907 142.02234977 -66.84833268 135.67134041 -78.25 123.875 C-91.82124385 107.62852123 -92.50402491 89.08819787 -92.39111328 68.92333984 C-92.37503333 65.50708076 -92.39102736 62.09200446 -92.41015625 58.67578125 C-92.43174545 38.05565247 -90.4765148 19.71814761 -75.37109375 4.1796875 C-54.22896961 -15.25574128 -23.23800578 -16.4588961 0 0 Z M-67.09765625 18.390625 C-74.37234189 28.21376739 -76.62004289 37.27504635 -76.6015625 49.390625 C-76.61013275 50.65283875 -76.618703 51.91505249 -76.62753296 53.21551514 C-76.63897148 55.87520788 -76.64195279 58.53333584 -76.63134766 61.19287109 C-76.62208948 63.89114087 -76.6359 66.58760731 -76.67236328 69.28564453 C-77.02971822 93.19860643 -77.02971822 93.19860643 -66.375 113.9375 C-57.60309028 122.91029315 -47.36299112 126.80885784 -35.0625 127.3125 C-23.64771723 127.00882033 -13.6914851 122.46493178 -5.25 114.875 C4.09620018 104.91013881 6.3084049 92.35993209 6.3359375 79.265625 C6.3425943 78.15121033 6.3492511 77.03679565 6.35610962 75.88861084 C6.36619828 73.53871298 6.37092782 71.18878668 6.37060547 68.83886719 C6.37496951 65.27490129 6.41130655 61.71218405 6.44921875 58.1484375 C6.45508977 55.85417085 6.45905725 53.55989839 6.4609375 51.265625 C6.47530853 50.21522034 6.48967957 49.16481567 6.50448608 48.08258057 C6.42932555 35.69253325 2.44016085 24.94329842 -6 15.84375 C-15.02403687 7.20645757 -25.11052583 3.57876908 -37.42578125 3.73046875 C-49.17404989 4.61640376 -59.30657465 9.51140351 -67.09765625 18.390625 Z " fill="#010000" transform="translate(136,246)"/>
</svg>
